<svg xmlns="http://www.w3.org/2000/svg" xmlns:xlink="http://www.w3.org/1999/xlink" width="500" zoomAndPan="magnify" viewBox="0 0 375 374.999991" height="500" preserveAspectRatio="xMidYMid meet" version="1.0"><defs><g/><clipPath id="31001252c7"><path d="M 119 37.5 L 279.851562 37.5 L 279.851562 107 L 119 107 Z M 119 37.5 " clip-rule="nonzero"/></clipPath><clipPath id="adae4a76c9"><path d="M 102.851562 106 L 264 106 L 264 174.75 L 102.851562 174.75 Z M 102.851562 106 " clip-rule="nonzero"/></clipPath></defs><g clip-path="url(#31001252c7)"><path fill="#00d09e" d="M 119.265625 106.199219 L 145.804688 106.199219 L 166.699219 79.773438 L 140.164062 79.773438 Z M 253.050781 37.496094 L 197.515625 106.199219 L 224.054688 106.199219 L 279.589844 37.496094 Z M 199.878906 54.757812 L 158.390625 106.199219 L 184.929688 106.199219 L 226.414062 54.757812 L 199.878906 54.757812 " fill-opacity="1" fill-rule="nonzero"/></g><g clip-path="url(#adae4a76c9)"><path fill="#ffffff" d="M 263.179688 106.199219 L 236.640625 106.199219 L 215.746094 132.628906 L 242.285156 132.628906 Z M 129.394531 174.90625 L 184.929688 106.199219 L 158.390625 106.199219 L 102.855469 174.90625 Z M 182.566406 157.644531 L 224.054688 106.199219 L 197.515625 106.199219 L 156.03125 157.644531 L 182.566406 157.644531 " fill-opacity="1" fill-rule="nonzero"/></g><g fill="#00d09e" fill-opacity="1"><g transform="translate(68.907926, 245.578348)"><g><path d="M 53.078125 -56.328125 L 64.4375 -56.328125 L 64.4375 0 L 52.4375 0 L 52.4375 -37.1875 L 39.015625 -18.359375 L 29.390625 -18.359375 L 15.8125 -36.625 L 15.8125 0 L 3.734375 0 L 3.734375 -56.328125 L 15.171875 -56.328125 L 34.25 -30.34375 Z M 53.078125 -56.328125 "/></g></g></g><g fill="#00d09e" fill-opacity="1"><g transform="translate(135.485658, 245.578348)"><g><path d="M 22.96875 -40.515625 C 25.769531 -40.515625 28.414062 -39.972656 30.90625 -38.890625 C 33.394531 -37.804688 35.566406 -36.320312 37.421875 -34.4375 C 39.273438 -32.5625 40.742188 -30.363281 41.828125 -27.84375 C 42.910156 -25.332031 43.453125 -22.644531 43.453125 -19.78125 C 43.453125 -16.925781 42.910156 -14.238281 41.828125 -11.71875 C 40.742188 -9.207031 39.273438 -7.007812 37.421875 -5.125 C 35.566406 -3.238281 33.394531 -1.753906 30.90625 -0.671875 C 28.414062 0.410156 25.769531 0.953125 22.96875 0.953125 C 20.101562 0.953125 17.425781 0.410156 14.9375 -0.671875 C 12.445312 -1.753906 10.273438 -3.238281 8.421875 -5.125 C 6.566406 -7.007812 5.097656 -9.207031 4.015625 -11.71875 C 2.929688 -14.238281 2.390625 -16.925781 2.390625 -19.78125 C 2.390625 -22.644531 2.929688 -25.332031 4.015625 -27.84375 C 5.097656 -30.363281 6.566406 -32.5625 8.421875 -34.4375 C 10.273438 -36.320312 12.445312 -37.804688 14.9375 -38.890625 C 17.425781 -39.972656 20.101562 -40.515625 22.96875 -40.515625 Z M 22.96875 -8.65625 C 24.289062 -8.65625 25.519531 -8.921875 26.65625 -9.453125 C 27.789062 -9.984375 28.796875 -10.710938 29.671875 -11.640625 C 30.546875 -12.566406 31.234375 -13.675781 31.734375 -14.96875 C 32.242188 -16.269531 32.5 -17.71875 32.5 -19.3125 C 32.5 -20.894531 32.242188 -22.375 31.734375 -23.75 C 31.234375 -25.132812 30.546875 -26.34375 29.671875 -27.375 C 28.796875 -28.40625 27.789062 -29.222656 26.65625 -29.828125 C 25.519531 -30.441406 24.289062 -30.75 22.96875 -30.75 C 21.632812 -30.75 20.382812 -30.441406 19.21875 -29.828125 C 18.0625 -29.222656 17.046875 -28.40625 16.171875 -27.375 C 15.296875 -26.34375 14.601562 -25.132812 14.09375 -23.75 C 13.59375 -22.375 13.34375 -20.894531 13.34375 -19.3125 C 13.34375 -17.71875 13.59375 -16.269531 14.09375 -14.96875 C 14.601562 -13.675781 15.296875 -12.566406 16.171875 -11.640625 C 17.046875 -10.710938 18.0625 -9.984375 19.21875 -9.453125 C 20.382812 -8.921875 21.632812 -8.65625 22.96875 -8.65625 Z M 22.96875 -8.65625 "/></g></g></g><g fill="#00d09e" fill-opacity="1"><g transform="translate(179.500043, 245.578348)"><g><path d="M 24.078125 -39.40625 C 25.554688 -39.40625 27.195312 -39.191406 29 -38.765625 C 30.800781 -38.347656 32.492188 -37.554688 34.078125 -36.390625 C 35.671875 -35.222656 37.007812 -33.601562 38.09375 -31.53125 C 39.1875 -29.46875 39.734375 -26.796875 39.734375 -23.515625 L 39.734375 0 L 28.6875 0 L 28.6875 -23.125 C 28.6875 -24.34375 28.484375 -25.375 28.078125 -26.21875 C 27.679688 -27.0625 27.148438 -27.734375 26.484375 -28.234375 C 25.828125 -28.742188 25.078125 -29.117188 24.234375 -29.359375 C 23.390625 -29.597656 22.539062 -29.71875 21.6875 -29.71875 C 21 -29.71875 20.242188 -29.597656 19.421875 -29.359375 C 18.597656 -29.117188 17.828125 -28.734375 17.109375 -28.203125 C 16.398438 -27.671875 15.804688 -26.984375 15.328125 -26.140625 C 14.859375 -25.296875 14.625 -24.289062 14.625 -23.125 L 14.625 0 L 3.65625 0 L 3.65625 -39.40625 L 13.03125 -39.40625 L 14.625 -36.390625 C 15.894531 -37.285156 17.320312 -38.007812 18.90625 -38.5625 C 20.5 -39.125 22.222656 -39.40625 24.078125 -39.40625 Z M 24.078125 -39.40625 "/></g></g></g><g fill="#00d09e" fill-opacity="1"><g transform="translate(220.892646, 245.578348)"><g><path d="M 23.046875 -40.515625 C 26.003906 -40.515625 28.703125 -39.921875 31.140625 -38.734375 C 33.578125 -37.546875 35.671875 -35.984375 37.421875 -34.046875 C 39.171875 -32.109375 40.519531 -29.878906 41.46875 -27.359375 C 42.425781 -24.847656 42.90625 -22.269531 42.90625 -19.625 C 42.90625 -18.03125 42.691406 -16.335938 42.265625 -14.546875 L 14.140625 -14.546875 C 15.203125 -12.742188 16.710938 -11.21875 18.671875 -9.96875 C 20.628906 -8.726562 22.75 -8.109375 25.03125 -8.109375 C 27.300781 -8.109375 29.296875 -8.289062 31.015625 -8.65625 C 32.742188 -9.03125 34.375 -9.507812 35.90625 -10.09375 L 39.5625 -3.34375 C 37.601562 -1.957031 35.363281 -0.894531 32.84375 -0.15625 C 30.332031 0.582031 27.648438 0.953125 24.796875 0.953125 C 21.671875 0.953125 18.753906 0.410156 16.046875 -0.671875 C 13.347656 -1.753906 10.988281 -3.222656 8.96875 -5.078125 C 6.957031 -6.929688 5.367188 -9.128906 4.203125 -11.671875 C 3.046875 -14.222656 2.46875 -16.925781 2.46875 -19.78125 C 2.46875 -22.59375 2.992188 -25.253906 4.046875 -27.765625 C 5.109375 -30.285156 6.578125 -32.484375 8.453125 -34.359375 C 10.335938 -36.242188 12.523438 -37.738281 15.015625 -38.84375 C 17.503906 -39.957031 20.179688 -40.515625 23.046875 -40.515625 Z M 32.015625 -23.046875 C 31.378906 -25.316406 30.238281 -27.164062 28.59375 -28.59375 C 26.957031 -30.03125 25.109375 -30.75 23.046875 -30.75 C 20.921875 -30.75 19 -30.03125 17.28125 -28.59375 C 15.5625 -27.164062 14.382812 -25.316406 13.75 -23.046875 Z M 32.015625 -23.046875 "/></g></g></g><g fill="#00d09e" fill-opacity="1"><g transform="translate(266.57546, 245.578348)"><g><path d="M 34 -39.40625 L 46 -39.40625 L 21.140625 15.734375 L 9.140625 15.734375 L 18.90625 -5.953125 L 2.21875 -39.40625 L 14.453125 -39.40625 L 24.703125 -18.828125 Z M 34 -39.40625 "/></g></g></g><g fill="#ffffff" fill-opacity="1"><g transform="translate(94.976967, 314.013031)"><g><path d="M 73.328125 -56.328125 L 85.890625 -56.328125 L 70 0 L 55.0625 0 L 43.453125 -37.90625 L 31.859375 0 L 17.078125 0 L 1.1875 -56.328125 L 13.75 -56.328125 L 24.875 -13.75 L 37.65625 -56.328125 L 49.265625 -56.328125 L 62.125 -13.421875 Z M 73.328125 -56.328125 "/></g></g></g><g fill="#ffffff" fill-opacity="1"><g transform="translate(180.622301, 314.013031)"><g><path d="M 15.5 0 L 4.53125 0 L 4.53125 -39.40625 L 15.5 -39.40625 Z M 10.015625 -44.8125 C 8.316406 -44.8125 6.882812 -45.394531 5.71875 -46.5625 C 4.550781 -47.726562 3.96875 -49.15625 3.96875 -50.84375 C 3.96875 -52.539062 4.550781 -53.984375 5.71875 -55.171875 C 6.882812 -56.367188 8.316406 -56.96875 10.015625 -56.96875 C 11.703125 -56.96875 13.128906 -56.367188 14.296875 -55.171875 C 15.460938 -53.984375 16.046875 -52.539062 16.046875 -50.84375 C 16.046875 -49.15625 15.460938 -47.726562 14.296875 -46.5625 C 13.128906 -45.394531 11.703125 -44.8125 10.015625 -44.8125 Z M 10.015625 -44.8125 "/></g></g></g><g fill="#ffffff" fill-opacity="1"><g transform="translate(199.133767, 314.013031)"><g><path d="M 28.609375 -20.65625 C 31.515625 -18.59375 32.96875 -15.65625 32.96875 -11.84375 C 32.96875 -10.09375 32.554688 -8.445312 31.734375 -6.90625 C 30.921875 -5.375 29.796875 -4.023438 28.359375 -2.859375 C 26.929688 -1.691406 25.265625 -0.773438 23.359375 -0.109375 C 21.453125 0.546875 19.410156 0.875 17.234375 0.875 C 15.597656 0.875 14 0.660156 12.4375 0.234375 C 10.875 -0.179688 9.429688 -0.757812 8.109375 -1.5 C 6.785156 -2.25 5.628906 -3.140625 4.640625 -4.171875 C 3.660156 -5.203125 2.9375 -6.351562 2.46875 -7.625 C 3.6875 -8.207031 5.035156 -8.851562 6.515625 -9.5625 C 7.992188 -10.28125 9.289062 -10.929688 10.40625 -11.515625 C 10.882812 -10.722656 11.625 -9.992188 12.625 -9.328125 C 13.632812 -8.671875 15.015625 -8.34375 16.765625 -8.34375 C 18.566406 -8.34375 19.890625 -8.765625 20.734375 -9.609375 C 21.585938 -10.460938 22.015625 -11.257812 22.015625 -12 C 22.015625 -12.53125 21.722656 -13.019531 21.140625 -13.46875 C 20.554688 -13.914062 19.890625 -14.273438 19.140625 -14.546875 C 18.085938 -14.960938 17.21875 -15.179688 16.53125 -15.203125 C 15.84375 -15.234375 15.046875 -15.382812 14.140625 -15.65625 C 11.285156 -16.34375 9.101562 -17.253906 7.59375 -18.390625 C 6.082031 -19.535156 4.976562 -20.6875 4.28125 -21.84375 C 3.59375 -23.007812 3.207031 -24.125 3.125 -25.1875 C 3.050781 -26.25 3.015625 -27.097656 3.015625 -27.734375 C 3.015625 -29.421875 3.382812 -31.03125 4.125 -32.5625 C 4.875 -34.101562 5.894531 -35.441406 7.1875 -36.578125 C 8.488281 -37.722656 10 -38.640625 11.71875 -39.328125 C 13.4375 -40.015625 15.273438 -40.359375 17.234375 -40.359375 C 18.878906 -40.359375 20.441406 -40.117188 21.921875 -39.640625 C 23.410156 -39.171875 24.765625 -38.507812 25.984375 -37.65625 C 27.203125 -36.8125 28.25 -35.804688 29.125 -34.640625 C 30 -33.472656 30.644531 -32.175781 31.0625 -30.75 L 22.5625 -27.890625 C 22.25 -28.835938 21.597656 -29.601562 20.609375 -30.1875 C 19.628906 -30.769531 18.585938 -31.0625 17.484375 -31.0625 C 16.367188 -31.0625 15.46875 -30.691406 14.78125 -29.953125 C 14.09375 -29.210938 13.75 -28.472656 13.75 -27.734375 C 13.75 -26.828125 14.078125 -26.125 14.734375 -25.625 C 15.398438 -25.125 16.128906 -24.765625 16.921875 -24.546875 C 17.503906 -24.441406 18.070312 -24.347656 18.625 -24.265625 C 19.1875 -24.191406 19.734375 -24.101562 20.265625 -24 C 22.117188 -23.570312 23.71875 -23.09375 25.0625 -22.5625 C 26.414062 -22.03125 27.597656 -21.394531 28.609375 -20.65625 Z M 28.609375 -20.65625 "/></g></g></g><g fill="#ffffff" fill-opacity="1"><g transform="translate(232.740432, 314.013031)"><g><path d="M 23.046875 -40.515625 C 26.003906 -40.515625 28.703125 -39.921875 31.140625 -38.734375 C 33.578125 -37.546875 35.671875 -35.984375 37.421875 -34.046875 C 39.171875 -32.109375 40.519531 -29.878906 41.46875 -27.359375 C 42.425781 -24.847656 42.90625 -22.269531 42.90625 -19.625 C 42.90625 -18.03125 42.691406 -16.335938 42.265625 -14.546875 L 14.140625 -14.546875 C 15.203125 -12.742188 16.710938 -11.21875 18.671875 -9.96875 C 20.628906 -8.726562 22.75 -8.109375 25.03125 -8.109375 C 27.300781 -8.109375 29.296875 -8.289062 31.015625 -8.65625 C 32.742188 -9.03125 34.375 -9.507812 35.90625 -10.09375 L 39.5625 -3.34375 C 37.601562 -1.957031 35.363281 -0.894531 32.84375 -0.15625 C 30.332031 0.582031 27.648438 0.953125 24.796875 0.953125 C 21.671875 0.953125 18.753906 0.410156 16.046875 -0.671875 C 13.347656 -1.753906 10.988281 -3.222656 8.96875 -5.078125 C 6.957031 -6.929688 5.367188 -9.128906 4.203125 -11.671875 C 3.046875 -14.222656 2.46875 -16.925781 2.46875 -19.78125 C 2.46875 -22.59375 2.992188 -25.253906 4.046875 -27.765625 C 5.109375 -30.285156 6.578125 -32.484375 8.453125 -34.359375 C 10.335938 -36.242188 12.523438 -37.738281 15.015625 -38.84375 C 17.503906 -39.957031 20.179688 -40.515625 23.046875 -40.515625 Z M 32.015625 -23.046875 C 31.378906 -25.316406 30.238281 -27.164062 28.59375 -28.59375 C 26.957031 -30.03125 25.109375 -30.75 23.046875 -30.75 C 20.921875 -30.75 19 -30.03125 17.28125 -28.59375 C 15.5625 -27.164062 14.382812 -25.316406 13.75 -23.046875 Z M 32.015625 -23.046875 "/></g></g></g></svg>